<svg width="110" height="30" viewBox="0 0 110 30" fill="none" xmlns="http://www.w3.org/2000/svg">
<path d="M1.15259 20.6951V8.96191L9.6858 20.6951" stroke="#171717" stroke-width="1.5"/>
<path d="M1 5.30469L8.65592 15.8188M12.4284 20.9997L8.65592 15.8188M8.65592 15.8188L15.9472 6.62736C15.9472 6.62736 15.9472 19.8499 15.9472 20.9997" stroke="#171717" stroke-width="1.5"/>
<path d="M26.2947 5V12.5332M26.2947 20.9998V12.5332M16.0853 12.5332H21.19H26.2947" stroke="#171717" stroke-width="1.5"/>
<path d="M17.7606 14.6001H26.2938" stroke="#171717" stroke-width="1.5"/>
<path d="M45.0058 11.0267L40.4013 19.4178H39.7969L35.1569 11.1156V21H33.948V8.55556H34.9969L40.0991 17.7644L45.1658 8.55556H46.2502L46.268 21H45.0236L45.0058 11.0267ZM54.1974 21.1244C52.6566 21.1244 51.4537 20.6622 50.5885 19.7378C49.7352 18.8015 49.3085 17.4504 49.3085 15.6844V8.55556H50.6063V15.6311C50.6063 17.077 50.9144 18.1556 51.5307 18.8667C52.147 19.5778 53.0359 19.9333 54.1974 19.9333C55.3589 19.9333 56.2478 19.5778 56.8641 18.8667C57.4803 18.1556 57.7885 17.077 57.7885 15.6311V8.55556H59.0507V15.6844C59.0507 17.4504 58.6241 18.8015 57.7707 19.7378C56.9292 20.6622 55.7381 21.1244 54.1974 21.1244ZM65.391 21.1244C64.514 21.1244 63.6725 20.9763 62.8666 20.68C62.0725 20.3719 61.4443 19.9748 60.9821 19.4889L61.4799 18.4756C61.9184 18.9259 62.4873 19.2933 63.1866 19.5778C63.8977 19.8504 64.6325 19.9867 65.391 19.9867C66.434 19.9867 67.2162 19.7852 67.7377 19.3822C68.271 18.9674 68.5377 18.44 68.5377 17.8C68.5377 17.3022 68.3954 16.9052 68.111 16.6089C67.8266 16.3007 67.471 16.0696 67.0443 15.9156C66.6177 15.7496 66.0369 15.5719 65.3021 15.3822C64.4251 15.1452 63.7199 14.92 63.1866 14.7067C62.6651 14.4815 62.2147 14.1437 61.8354 13.6933C61.468 13.243 61.2843 12.6326 61.2843 11.8622C61.2843 11.2341 61.4443 10.6593 61.7643 10.1378C62.0843 9.6163 62.5643 9.20148 63.2043 8.89333C63.8562 8.58518 64.6621 8.43111 65.6221 8.43111C66.3095 8.43111 66.9791 8.53185 67.631 8.73333C68.2828 8.93481 68.8517 9.21333 69.3377 9.56889L68.8932 10.6178C68.4073 10.2741 67.8799 10.0133 67.311 9.83556C66.7421 9.65778 66.1851 9.56889 65.6399 9.56889C64.6206 9.56889 63.8503 9.78222 63.3288 10.2089C62.8191 10.6237 62.5643 11.157 62.5643 11.8089C62.5643 12.3067 62.7066 12.7096 62.991 13.0178C63.2754 13.3259 63.631 13.563 64.0577 13.7289C64.4962 13.883 65.0828 14.0548 65.8177 14.2444C66.6828 14.4696 67.3762 14.6948 67.8977 14.92C68.431 15.1333 68.8814 15.4652 69.2488 15.9156C69.628 16.3659 69.8177 16.9644 69.8177 17.7111C69.8177 18.3393 69.6517 18.9141 69.3199 19.4356C68.9999 19.9452 68.508 20.3541 67.8443 20.6622C67.1806 20.9704 66.3628 21.1244 65.391 21.1244ZM80.0326 21H71.6593V8.55556H79.8015V9.69333H72.9393V14.12H79.0548V15.24H72.9393V19.8622H80.0326V21ZM87.0724 21.1244C85.5316 21.1244 84.3287 20.6622 83.4635 19.7378C82.6102 18.8015 82.1835 17.4504 82.1835 15.6844V8.55556H83.4813V15.6311C83.4813 17.077 83.7894 18.1556 84.4057 18.8667C85.022 19.5778 85.9109 19.9333 87.0724 19.9333C88.2339 19.9333 89.1228 19.5778 89.7391 18.8667C90.3553 18.1556 90.6635 17.077 90.6635 15.6311V8.55556H91.9257V15.6844C91.9257 17.4504 91.4991 18.8015 90.6457 19.7378C89.8042 20.6622 88.6131 21.1244 87.0724 21.1244ZM106.053 11.0267L101.448 19.4178H100.844L96.2038 11.1156V21H94.9949V8.55556H96.0438L101.146 17.7644L106.213 8.55556H107.297L107.315 21H106.07L106.053 11.0267Z" fill="#171717"/>
</svg>
